<mxfile host="Electron" modified="2023-11-30T22:19:21.984Z" agent="Mozilla/5.0 (X11; Linux x86_64) AppleWebKit/537.36 (KHTML, like Gecko) draw.io/22.1.2 Chrome/114.0.5735.289 Electron/25.9.4 Safari/537.36" etag="8JwTn10jLnpac5NCHMaz" version="22.1.2" type="device">
  <diagram id="C5RBs43oDa-KdzZeNtuy" name="Page-1">
    <mxGraphModel dx="1050" dy="723" grid="1" gridSize="10" guides="1" tooltips="1" connect="1" arrows="1" fold="1" page="1" pageScale="1" pageWidth="827" pageHeight="1169" math="0" shadow="0">
      <root>
        <mxCell id="WIyWlLk6GJQsqaUBKTNV-0" />
        <mxCell id="WIyWlLk6GJQsqaUBKTNV-1" parent="WIyWlLk6GJQsqaUBKTNV-0" />
        <mxCell id="gqVQ2hzI_WpjhjxDN26n-8" value="" style="edgeStyle=orthogonalEdgeStyle;rounded=0;orthogonalLoop=1;jettySize=auto;html=1;" parent="WIyWlLk6GJQsqaUBKTNV-1" source="gqVQ2hzI_WpjhjxDN26n-0" target="gqVQ2hzI_WpjhjxDN26n-3" edge="1">
          <mxGeometry relative="1" as="geometry" />
        </mxCell>
        <mxCell id="gqVQ2hzI_WpjhjxDN26n-0" value="Начало" style="rounded=1;whiteSpace=wrap;html=1;" parent="WIyWlLk6GJQsqaUBKTNV-1" vertex="1">
          <mxGeometry x="130" y="20" width="120" height="60" as="geometry" />
        </mxCell>
        <mxCell id="gqVQ2hzI_WpjhjxDN26n-9" value="" style="edgeStyle=orthogonalEdgeStyle;rounded=0;orthogonalLoop=1;jettySize=auto;html=1;" parent="WIyWlLk6GJQsqaUBKTNV-1" source="gqVQ2hzI_WpjhjxDN26n-3" target="gqVQ2hzI_WpjhjxDN26n-4" edge="1">
          <mxGeometry relative="1" as="geometry" />
        </mxCell>
        <mxCell id="gqVQ2hzI_WpjhjxDN26n-3" value="a # array" style="shape=parallelogram;perimeter=parallelogramPerimeter;whiteSpace=wrap;html=1;fixedSize=1;" parent="WIyWlLk6GJQsqaUBKTNV-1" vertex="1">
          <mxGeometry x="130" y="110" width="120" height="60" as="geometry" />
        </mxCell>
        <mxCell id="gqVQ2hzI_WpjhjxDN26n-10" value="" style="edgeStyle=orthogonalEdgeStyle;rounded=0;orthogonalLoop=1;jettySize=auto;html=1;" parent="WIyWlLk6GJQsqaUBKTNV-1" source="gqVQ2hzI_WpjhjxDN26n-4" target="gqVQ2hzI_WpjhjxDN26n-5" edge="1">
          <mxGeometry relative="1" as="geometry" />
        </mxCell>
        <mxCell id="gqVQ2hzI_WpjhjxDN26n-4" value="max =&amp;nbsp; a[0]&lt;br&gt;min = a[0]&lt;br&gt;i_max = 0&lt;br&gt;I_min = 0&lt;br&gt;i = 0" style="rounded=0;whiteSpace=wrap;html=1;" parent="WIyWlLk6GJQsqaUBKTNV-1" vertex="1">
          <mxGeometry x="130" y="200" width="120" height="90" as="geometry" />
        </mxCell>
        <mxCell id="gqVQ2hzI_WpjhjxDN26n-11" value="yes" style="edgeStyle=orthogonalEdgeStyle;rounded=0;orthogonalLoop=1;jettySize=auto;html=1;" parent="WIyWlLk6GJQsqaUBKTNV-1" source="gqVQ2hzI_WpjhjxDN26n-5" target="gqVQ2hzI_WpjhjxDN26n-6" edge="1">
          <mxGeometry relative="1" as="geometry">
            <Array as="points">
              <mxPoint x="190" y="445" />
              <mxPoint x="190" y="445" />
            </Array>
          </mxGeometry>
        </mxCell>
        <mxCell id="gqVQ2hzI_WpjhjxDN26n-26" value="no" style="edgeStyle=orthogonalEdgeStyle;rounded=0;orthogonalLoop=1;jettySize=auto;html=1;" parent="WIyWlLk6GJQsqaUBKTNV-1" source="gqVQ2hzI_WpjhjxDN26n-5" target="gqVQ2hzI_WpjhjxDN26n-25" edge="1">
          <mxGeometry relative="1" as="geometry" />
        </mxCell>
        <mxCell id="gqVQ2hzI_WpjhjxDN26n-5" value="i &amp;lt; len(a) - 1" style="rhombus;whiteSpace=wrap;html=1;" parent="WIyWlLk6GJQsqaUBKTNV-1" vertex="1">
          <mxGeometry x="135" y="320" width="110" height="110" as="geometry" />
        </mxCell>
        <mxCell id="gqVQ2hzI_WpjhjxDN26n-13" value="yes" style="edgeStyle=orthogonalEdgeStyle;rounded=0;orthogonalLoop=1;jettySize=auto;html=1;" parent="WIyWlLk6GJQsqaUBKTNV-1" source="gqVQ2hzI_WpjhjxDN26n-6" target="gqVQ2hzI_WpjhjxDN26n-12" edge="1">
          <mxGeometry relative="1" as="geometry" />
        </mxCell>
        <mxCell id="gqVQ2hzI_WpjhjxDN26n-17" value="no" style="edgeStyle=orthogonalEdgeStyle;rounded=0;orthogonalLoop=1;jettySize=auto;html=1;" parent="WIyWlLk6GJQsqaUBKTNV-1" source="gqVQ2hzI_WpjhjxDN26n-6" target="gqVQ2hzI_WpjhjxDN26n-7" edge="1">
          <mxGeometry relative="1" as="geometry">
            <Array as="points">
              <mxPoint x="190" y="590" />
              <mxPoint x="190" y="590" />
            </Array>
          </mxGeometry>
        </mxCell>
        <mxCell id="gqVQ2hzI_WpjhjxDN26n-6" value="max &amp;lt; a[i+1]" style="rhombus;whiteSpace=wrap;html=1;" parent="WIyWlLk6GJQsqaUBKTNV-1" vertex="1">
          <mxGeometry x="135" y="465" width="110" height="110" as="geometry" />
        </mxCell>
        <mxCell id="gqVQ2hzI_WpjhjxDN26n-18" value="yes" style="edgeStyle=orthogonalEdgeStyle;rounded=0;orthogonalLoop=1;jettySize=auto;html=1;" parent="WIyWlLk6GJQsqaUBKTNV-1" source="gqVQ2hzI_WpjhjxDN26n-7" target="gqVQ2hzI_WpjhjxDN26n-14" edge="1">
          <mxGeometry relative="1" as="geometry">
            <Array as="points">
              <mxPoint x="260" y="690" />
              <mxPoint x="260" y="690" />
            </Array>
          </mxGeometry>
        </mxCell>
        <mxCell id="gqVQ2hzI_WpjhjxDN26n-19" value="no" style="edgeStyle=orthogonalEdgeStyle;rounded=0;orthogonalLoop=1;jettySize=auto;html=1;" parent="WIyWlLk6GJQsqaUBKTNV-1" source="gqVQ2hzI_WpjhjxDN26n-7" target="gqVQ2hzI_WpjhjxDN26n-16" edge="1">
          <mxGeometry relative="1" as="geometry">
            <Array as="points">
              <mxPoint x="190" y="770" />
              <mxPoint x="190" y="770" />
            </Array>
          </mxGeometry>
        </mxCell>
        <mxCell id="gqVQ2hzI_WpjhjxDN26n-7" value="min &amp;gt; a[i + 1]" style="rhombus;whiteSpace=wrap;html=1;" parent="WIyWlLk6GJQsqaUBKTNV-1" vertex="1">
          <mxGeometry x="130" y="630" width="120" height="120" as="geometry" />
        </mxCell>
        <mxCell id="gqVQ2hzI_WpjhjxDN26n-12" value="max = a[i+1]&lt;br&gt;i_max = i + 1" style="rounded=0;whiteSpace=wrap;html=1;" parent="WIyWlLk6GJQsqaUBKTNV-1" vertex="1">
          <mxGeometry x="290" y="490" width="120" height="60" as="geometry" />
        </mxCell>
        <mxCell id="gqVQ2hzI_WpjhjxDN26n-14" value="min = a[i+1]&lt;br&gt;i_min = i + 1" style="rounded=0;whiteSpace=wrap;html=1;" parent="WIyWlLk6GJQsqaUBKTNV-1" vertex="1">
          <mxGeometry x="290" y="660" width="120" height="60" as="geometry" />
        </mxCell>
        <mxCell id="gqVQ2hzI_WpjhjxDN26n-16" value="i += 1" style="rounded=0;whiteSpace=wrap;html=1;" parent="WIyWlLk6GJQsqaUBKTNV-1" vertex="1">
          <mxGeometry x="130" y="790" width="120" height="60" as="geometry" />
        </mxCell>
        <mxCell id="gqVQ2hzI_WpjhjxDN26n-22" value="" style="endArrow=none;html=1;rounded=0;entryX=0.5;entryY=1;entryDx=0;entryDy=0;" parent="WIyWlLk6GJQsqaUBKTNV-1" target="gqVQ2hzI_WpjhjxDN26n-12" edge="1">
          <mxGeometry width="50" height="50" relative="1" as="geometry">
            <mxPoint x="190" y="630" as="sourcePoint" />
            <mxPoint x="240" y="630" as="targetPoint" />
            <Array as="points">
              <mxPoint x="350" y="630" />
            </Array>
          </mxGeometry>
        </mxCell>
        <mxCell id="gqVQ2hzI_WpjhjxDN26n-23" value="" style="endArrow=none;html=1;rounded=0;entryX=0.5;entryY=1;entryDx=0;entryDy=0;" parent="WIyWlLk6GJQsqaUBKTNV-1" target="gqVQ2hzI_WpjhjxDN26n-14" edge="1">
          <mxGeometry width="50" height="50" relative="1" as="geometry">
            <mxPoint x="190" y="780" as="sourcePoint" />
            <mxPoint x="350" y="760" as="targetPoint" />
            <Array as="points">
              <mxPoint x="350" y="780" />
            </Array>
          </mxGeometry>
        </mxCell>
        <mxCell id="gqVQ2hzI_WpjhjxDN26n-24" value="" style="endArrow=none;html=1;rounded=0;entryX=0;entryY=0.5;entryDx=0;entryDy=0;" parent="WIyWlLk6GJQsqaUBKTNV-1" target="gqVQ2hzI_WpjhjxDN26n-16" edge="1">
          <mxGeometry width="50" height="50" relative="1" as="geometry">
            <mxPoint x="190" y="300" as="sourcePoint" />
            <mxPoint x="240" y="550" as="targetPoint" />
            <Array as="points">
              <mxPoint x="40" y="300" />
              <mxPoint x="40" y="820" />
            </Array>
          </mxGeometry>
        </mxCell>
        <mxCell id="gqVQ2hzI_WpjhjxDN26n-28" value="" style="edgeStyle=orthogonalEdgeStyle;rounded=0;orthogonalLoop=1;jettySize=auto;html=1;" parent="WIyWlLk6GJQsqaUBKTNV-1" source="gqVQ2hzI_WpjhjxDN26n-25" target="gqVQ2hzI_WpjhjxDN26n-27" edge="1">
          <mxGeometry relative="1" as="geometry" />
        </mxCell>
        <mxCell id="gqVQ2hzI_WpjhjxDN26n-25" value="i_max&lt;br&gt;i_min" style="shape=document;whiteSpace=wrap;html=1;boundedLbl=1;" parent="WIyWlLk6GJQsqaUBKTNV-1" vertex="1">
          <mxGeometry x="460" y="335" width="120" height="80" as="geometry" />
        </mxCell>
        <mxCell id="gqVQ2hzI_WpjhjxDN26n-27" value="Конец" style="rounded=1;whiteSpace=wrap;html=1;" parent="WIyWlLk6GJQsqaUBKTNV-1" vertex="1">
          <mxGeometry x="460" y="490" width="120" height="60" as="geometry" />
        </mxCell>
        <mxCell id="gqVQ2hzI_WpjhjxDN26n-29" value="Нахождение индексов минимального и максимального элементов" style="text;html=1;strokeColor=none;fillColor=none;align=center;verticalAlign=middle;whiteSpace=wrap;rounded=0;" parent="WIyWlLk6GJQsqaUBKTNV-1" vertex="1">
          <mxGeometry x="395" y="15" width="250" height="70" as="geometry" />
        </mxCell>
      </root>
    </mxGraphModel>
  </diagram>
</mxfile>
